<?xml version="1.0"?>
<svg xmlns="http://www.w3.org/2000/svg" height="512px" viewBox="0 -1 478.95829 478" width="512px" class=""><g><path d="m476.617188 144.261719-141.417969-141.441407c-3.125-3.121093-8.1875-3.121093-11.3125 0l-214.957031 214.960938c-3.125 3.125-3.125 8.1875 0 11.3125l7.78125 7.785156h-108.710938c-4.417969 0-8 3.582032-8 8v224c0 4.417969 3.582031 8 8 8h384c4.417969 0 8-3.582031 8-8v-224c-.011719-3.335937-2.109375-6.308594-5.246094-7.441406l81.863282-81.863281c3.121093-3.125 3.121093-8.1875 0-11.3125zm-318.90625 92.617187 194.449218-194.449218 11.328125 11.328124-183.121093 183.121094zm171.808593-217.089844 11.328125 11.328126-203.648437 203.648437-11.328125-11.328125zm54.480469 441.089844h-368v-208h368zm-11.3125-224h-169.695312l171.808593-171.808594 84.847657 84.847657zm0 0" data-original="#000000" class="active-path" data-old_color="#F7F4F4" fill="#FCFAFA"/><path d="m363.480469 121.675781c-5.128907 5.171875-8.316407 11.953125-9.03125 19.203125-7.265625.703125-14.066407 3.898438-19.25 9.039063-12.496094 12.496093-12.496094 32.757812 0 45.253906 12.496093 12.5 32.757812 12.5 45.257812 0 5.132813-5.167969 8.328125-11.949219 9.046875-19.199219 7.265625-.707031 14.0625-3.902344 19.238282-9.046875 12.492187-12.496093 12.492187-32.753906 0-45.25-12.667969-12.078125-32.589844-12.078125-45.261719 0zm-16.976563 62.226563c-4.449218-4.40625-5.90625-11.011719-3.71875-16.878906 2.191406-5.867188 7.613282-9.90625 13.863282-10.320313 3.210937 7.71875 9.339843 13.863281 17.054687 17.09375-.253906 3.808594-1.875 7.398437-4.566406 10.105469-6.347657 6.027344-16.308594 6.007812-22.632813-.039063zm50.921875-50.914063c6.246094 6.25 6.246094 16.378907 0 22.625-2.746093 2.660157-6.363281 4.234375-10.179687 4.433594-3.234375-7.65625-9.347656-13.734375-17.023438-16.921875.4375-6.234375 4.480469-11.640625 10.339844-13.824219 5.855469-2.179687 12.449219-.738281 16.863281 3.6875zm0 0" data-original="#000000" class="active-path" data-old_color="#F7F4F4" fill="#FCFAFA"/><path d="m104 332.878906h16v16h-16zm0 0" data-original="#000000" class="active-path" data-old_color="#F7F4F4" fill="#FCFAFA"/><path d="m88 348.878906h16v16h-16zm0 0" data-original="#000000" class="active-path" data-old_color="#F7F4F4" fill="#FCFAFA"/><path d="m104 364.878906h16v16h-16zm0 0" data-original="#000000" class="active-path" data-old_color="#F7F4F4" fill="#FCFAFA"/><path d="m120 348.878906h16v16h-16zm0 0" data-original="#000000" class="active-path" data-old_color="#F7F4F4" fill="#FCFAFA"/><path d="m280 332.878906h16v16h-16zm0 0" data-original="#000000" class="active-path" data-old_color="#F7F4F4" fill="#FCFAFA"/><path d="m264 348.878906h16v16h-16zm0 0" data-original="#000000" class="active-path" data-old_color="#F7F4F4" fill="#FCFAFA"/><path d="m280 364.878906h16v16h-16zm0 0" data-original="#000000" class="active-path" data-old_color="#F7F4F4" fill="#FCFAFA"/><path d="m296 348.878906h16v16h-16zm0 0" data-original="#000000" class="active-path" data-old_color="#F7F4F4" fill="#FCFAFA"/><path d="m32 404.878906c22.082031.023438 39.972656 17.917969 40 40 0 4.417969 3.582031 8 8 8h240c4.417969 0 8-3.582031 8-8 .027344-22.082031 17.917969-39.976562 40-40 4.417969 0 8-3.582031 8-8v-80c0-4.417968-3.582031-8-8-8-13.972656.0625-26.945312-7.230468-34.152344-19.203125-3.863281-6.246093-5.890625-13.453125-5.847656-20.796875 0-4.417968-3.582031-8-8-8h-240c-4.417969 0-8 3.582032-8 8-.027344 22.078125-17.917969 39.972656-40 40-4.417969 0-8 3.582032-8 8v80c0 4.417969 3.582031 8 8 8zm8-80.570312c24.554688-3.589844 43.84375-22.875 47.433594-47.429688h225.140625c3.597656 24.550782 22.875 43.835938 47.425781 47.4375v65.128906c-24.554688 3.589844-43.84375 22.875-47.433594 47.433594h-225.132812c-3.589844-24.558594-22.878906-43.84375-47.433594-47.433594zm0 0" data-original="#000000" class="active-path" data-old_color="#F7F4F4" fill="#FCFAFA"/><path d="m184 372.878906h-16c0 13.253906 10.746094 24 24 24v8h16v-8c13.253906 0 24-10.746094 24-24 0-13.257812-10.746094-24-24-24v-16c4.417969 0 8 3.582032 8 8h16c0-13.257812-10.746094-24-24-24v-8h-16v8c-13.253906 0-24 10.742188-24 24 0 13.253906 10.746094 24 24 24v16c-4.417969 0-8-3.582031-8-8zm0-32c0-4.417968 3.582031-8 8-8v16c-4.417969 0-8-3.582031-8-8zm24 24c4.417969 0 8 3.582032 8 8 0 4.417969-3.582031 8-8 8zm0 0" data-original="#000000" class="active-path" data-old_color="#F7F4F4" fill="#FCFAFA"/></g> </svg>
