<?xml version="1.0"?>
<svg xmlns="http://www.w3.org/2000/svg" id="Layer_1" data-name="Layer 1" viewBox="0 0 512 512" width="512px" height="512px"><g><title class="active-path" style="fill:#FFFBFB" data-old_color="#FDFAFA">Online payment 2</title><path d="M53.639,137.727V369.6a44.025,44.025,0,0,0,43.976,43.977H250V483H177.554a6,6,0,1,0,0,12H338.987a6,6,0,1,0,0-12H262V413.581H414.385A44.025,44.025,0,0,0,458.361,369.6V137.727A44.026,44.026,0,0,0,414.385,93.75H375.929V53.711A36.753,36.753,0,0,0,339.218,17H219.725a5.981,5.981,0,0,0-.6.03c-.147.015-.293.04-.437.066-.048.008-.1.012-.144.021-.171.035-.339.079-.5.127l-.063.016c-.17.052-.335.113-.5.179-.018.007-.037.012-.054.019-.154.065-.305.138-.453.215l-.078.037c-.141.076-.276.159-.41.245-.031.02-.063.037-.093.057-.138.093-.27.193-.4.3-.023.019-.049.035-.072.054-.154.127-.3.262-.444.4L140.49,93.75H97.615A44.026,44.026,0,0,0,53.639,137.727ZM97.615,105.75h38.456V330.071H65.639V137.727A32.013,32.013,0,0,1,97.615,105.75Zm316.77,295.831H97.615A32.013,32.013,0,0,1,65.639,369.6V342.071H446.361V369.6A32.013,32.013,0,0,1,414.385,401.581Zm0-295.831a32.013,32.013,0,0,1,31.976,31.977V330.071H375.929V105.75ZM363.929,53.711v276.36H148.071V106.653h40.943a36.753,36.753,0,0,0,36.711-36.712V29H339.218A24.739,24.739,0,0,1,363.929,53.711ZM156.557,94.653l57.168-57.168V69.941a24.739,24.739,0,0,1-24.711,24.712Z" data-original="#000000" class="active-path" data-old_color="#FDFAFA" fill="#FFFBFB"/><path d="M285.959,165H346a6,6,0,0,0,0-12H285.959a6,6,0,0,0,0,12Z" data-original="#000000" class="active-path" data-old_color="#FDFAFA" fill="#FFFBFB"/><path d="M236,165h26.25a6,6,0,0,0,0-12H236a6,6,0,0,0,0,12Z" data-original="#000000" class="active-path" data-old_color="#FDFAFA" fill="#FFFBFB"/><path d="M346,196.333H320.657a6,6,0,0,0,0,12H346a6,6,0,0,0,0-12Z" data-original="#000000" class="active-path" data-old_color="#FDFAFA" fill="#FFFBFB"/><path d="M296.418,208.333a6,6,0,0,0,0-12H236a6,6,0,0,0,0,12Z" data-original="#000000" class="active-path" data-old_color="#FDFAFA" fill="#FFFBFB"/><path d="M168,251.667h88a6,6,0,0,0,0-12H168a6,6,0,0,0,0,12Z" data-original="#000000" class="active-path" data-old_color="#FDFAFA" fill="#FFFBFB"/><path d="M305.75,239.667H279a6,6,0,0,0,0,12h26.75a6,6,0,0,0,0-12Z" data-original="#000000" class="active-path" data-old_color="#FDFAFA" fill="#FFFBFB"/><path d="M346,239.667H329a6,6,0,0,0,0,12h17a6,6,0,0,0,0-12Z" data-original="#000000" class="active-path" data-old_color="#FDFAFA" fill="#FFFBFB"/><path d="M196,283H168a6,6,0,0,0,0,12h28a6,6,0,0,0,0-12Z" data-original="#000000" class="active-path" data-old_color="#FDFAFA" fill="#FFFBFB"/><path d="M305.75,283h-87a6,6,0,0,0,0,12h87a6,6,0,0,0,0-12Z" data-original="#000000" class="active-path" data-old_color="#FDFAFA" fill="#FFFBFB"/><path d="M346,283H329a6,6,0,0,0,0,12h17a6,6,0,0,0,0-12Z" data-original="#000000" class="active-path" data-old_color="#FDFAFA" fill="#FFFBFB"/><path d="M188.125,194.585c-.042,0-.083-.006-.125-.006s-.083.006-.125.006a11.5,11.5,0,0,1-11.37-11.488,6,6,0,1,0-12,0A23.535,23.535,0,0,0,182,205.812V211a6,6,0,0,0,12,0v-5.188a23.494,23.494,0,0,0-6-46.21,11.5,11.5,0,1,1,11.5-11.5,6,6,0,0,0,12,0A23.535,23.535,0,0,0,194,125.392V121a6,6,0,0,0-12,0v4.392a23.494,23.494,0,0,0,6,46.21,11.492,11.492,0,0,1,.125,22.983Z" data-original="#000000" class="active-path" data-old_color="#FDFAFA" fill="#FFFBFB"/></g> </svg>
